<?xml version="1.0" encoding="utf-8"?>
<!-- Generator: Adobe Illustrator 26.1.0, SVG Export Plug-In . SVG Version: 6.00 Build 0)  -->
<svg version="1.1" xmlns="http://www.w3.org/2000/svg" xmlns:xlink="http://www.w3.org/1999/xlink" x="0px" y="0px"
	 viewBox="0 0 504 360" style="enable-background:new 0 0 504 360;" xml:space="preserve">
<style type="text/css">
	.st0{display:none;}
	.st1{fill:none;stroke:#000000;stroke-width:0.5;stroke-miterlimit:10;}
</style>
<g id="Layer_1" class="st0">
	
		<image style="display:inline;overflow:visible;" width="1772" height="1056" xlink:href="562843C38C2D5840.jpg"  transform="matrix(0.2166 0 0 0.2166 65.9524 65.6564)">
	</image>
</g>
<g id="Layer_2">
	<path class="st1" d="M116.6,95.6c0,0,6.7,13.2,18.8,8.8c12.1-4.4,13.9-10.9,13.9-10.9s-0.9,6.6,1.4,13.1c1.9,5.5,5.7,26.5,5.2,35.1
		c0,6.9-2.2,24.4-6.4,29.6c0.7-7,4.5-33.1,0.2-35.7c-4.3-2.7-11.4-2.2-12.8-1.3c-1.4,0.9-19.5,34.9-34.9,37
		c11-5.9,25.2-30.5,31.1-42.7c2.7-4.9,8-19.3,6.8-20.8c-4.2,1.7-11.4,3-17.5,0C116.3,104.5,116.8,96.8,116.6,95.6z M138.4,128.2
		c0,0,9.1-0.6,12.3,1.3c0-5.6-2.6-19-6.5-22C143.7,111.6,140.9,123,138.4,128.2z"/>
	<path class="st1" d="M156.7,95.1c0,0,0.1,7.3,1.6,13.4c1.1,4.5,7.5,21,6.4,32.3c0,3.8-2.5,22-7.1,30.4c7.7-8.8,8.7-15,9.4-16.9
		c1.5-5.8,3.2-17.8,2.5-21c2.4,0.1,17.4,9.2,21,16.8c3.5,7.4,7.1,19.9,7,21.1c3.3-6.2,2.8-23.1,1.4-31.8c-1.4-8.5-9.5-29-10.7-31.8
		c-1.3-3.1-6.7-10.8-11.6-13.3c1.7,1.9,7.3,12.9,9.5,18.5c2.5,6.4,8,20.4,4.8,27.1c-4.8-2.6-16.1-11.9-24.1-24.2
		C162.7,109.1,160,102.7,156.7,95.1z"/>
	<path class="st1" d="M213.1,97.6c20.1,4.8,26.4,16,23.6,31.6c-2.8,15.3-15.2,24.6-17.8,26.3c-3.3,2-7.6,6.9-8.8,8.4
		c-4.3,5.5-10.1,9-7.9,7.2s4.7-8.1,7.7-17.8c4.3-13.6-2.3-26.9-11.2-39.6c-3-4.1-3.9-6.9-5-13.3c-0.6-4.3-3.2-7-3.2-7
		C196.3,97.5,206.6,96.4,213.1,97.6z M212.7,155.7c0,0,17-12.2,18.6-26.1s-9.4-28.4-31.5-28c0,5.7,7.5,13.5,13.6,24.1
		C217.8,134.5,218.3,144.9,212.7,155.7z"/>
	<path class="st1" d="M230.9,96.1c18-3.3,46.4,1.4,43.6,19.3c-0.8,12-13.3,19-18.5,21.7c4.5,1.9,4.3,5.9,4.2,12.4
		c-0.4,7.8,1.8,12.1,7.9,17.2c5.2,4.4,13.9,1.6,16.7,0.7c-1,1.1-5,4.3-10.8,3.7c-8.7-0.2-12.7-6.1-14.6-8.6
		c-5.1-6.9-5.3-13.6-5.5-15.8c-0.3-2.2-0.9-6.4-4.4-6.5c-2.3-0.1-4.7,4-9.2,12.2c-2.6,4.7-11.7,18.2-22.7,18.8
		c9.6-5.6,16.3-17.9,20.5-25.6c3.9-7.1,7-15.8,6.9-26.6c-0.1-10.5-8.7-17.8-11.8-20.6C232.6,97.9,231.8,97.1,230.9,96.1z
		 M243.6,100.1c0,0,12.4,13.2,5.3,32.4c9.8-5,20.9-8,17.2-21.8C260.7,98.6,243.6,100.1,243.6,100.1z"/>
	<path class="st1" d="M272.8,95.1c0,0,9.9,12.3,7.5,26.7c-2.7,16.4-2.5,36,7.9,46.1c6.3,5.1,26.5,6.5,33.4-10.4
		c-4.7,7.3-22.7,13.6-29.9,3.7c-6.5-8.9-6.5-18.9-5.6-22.9c6.1,3.1,22.1,6.3,30.8-4.3c-7.2,5.1-31,5.4-30.8-3.4
		c-0.1-13.3-1.4-23.2,2.8-25.2c15.1-4.7,25.9,2.8,28.9,11.4c-1-8.7-5.5-15-13.8-16.1C297.1,99.8,282.6,104.1,272.8,95.1z"/>
	<path class="st1" d="M339.3,110.1c11.4,1.7,19.4-9.7,19.6-14.5c0.2,2.8,0.1,4.3-0.9,7.2c-2.5,7-9.6,10.3-14.1,12
		c4.7,2.4,16.1,20.4,18.5,36.8c3.6,19.2,12.5,18.3,22.6,17.7c-26.8,11.8-30.9-22.8-33.5-29c-3.1-7.3-5.1-7.3-16.4-3.6
		c-1.3,20.2-8,32.9-14.3,36.4c4.7-3.7,7.7-25,8.8-45.1c1.1-20.1-8.8-32.4-8.8-32.4C325.1,99.1,331.6,109.1,339.3,110.1z
		 M335.1,130.7c0,0,4.7-2.1,12.4-1c-1.6-5.3-9.2-15.2-14.8-17.2C334.4,115.7,335.5,125.3,335.1,130.7z"/>
</g>
<g id="Layer_3">
	<path class="st1" d="M149.5,230.2c0,0,34.1-8.5,27.1-32.6c-6.1-21-41-16.9-49.4,8.4c-9.5,25.7,2.8,60.1,28.7,56
		c9.4-1.5,15.4-7.8,20.2-20.4c-12.4,17.1-31.1,14.9-39.4,1c-12.6-22.9,1.2-51.1,20-49.8C181.6,196.8,165.5,222.7,149.5,230.2z"/>
	<path class="st1" d="M169.6,184.2c0,0,9.4,1.3,12.9,10c3.6,9,1.9,49-1.8,58.2c-4.2,10.6-13.6,9.9-14.6,9.9c-1,0,12.4,2.5,17-4.9
		c4.1-5.2,5.7-20.6,6.2-26.1c2.9-1.6,13.7-1.6,19,0.6c0.4,10.8,1.3,30.8,15.4,30.5c-6.8-4.1-8-6.8-9.1-18.4
		c-1.1-12-0.1-15.9,0.7-21.4c1.5-7.5,3.3-17.6-7.3-22.8c-7.9-2.9-14.3,1.2-13.6,7.6c2.5-6.7,9.1-7.2,13.3-2.5
		c7.6,7.8,2.6,18.8,0.2,19.9c-2.2,0.8-16.3,0.8-17.8-1.5c-2.7-7.2-0.6-22.9-2.1-28.7C187.1,189.9,183.5,186.6,169.6,184.2z"/>
	<path class="st1" d="M236.8,197.7c2.7,4.5,5.4,9,15.7,11.3c-5.1,1.1-7.9,0.2-11.8-2.6c1.2,7.7,10.7,16.9,14.4,23.4
		c2.6,4.3,3.7,13.3,2.6,17.7c-1.7,7.1-9.6,13.2-17.7,14.5c23.4-15.7,7.6-34.4,4-36.6c-4.5-2.7-12.3-1.6-14.5,0.2
		c-3.2,1.8,3.1,10.4,3.4,18.5s-1,14.8-7.1,18.4c4.3-4.8,6.4-17.7-0.6-29.3c-5.2-9.7-1.7-31.6,1.5-38.1c2.8-6.8,7.3-10.8,7.3-10.8
		C234.2,192.3,234.8,193.4,236.8,197.7z M228.5,218.1c0,0,4.5-2.6,11.5-1.1c-3.1-4.7-7.7-12.9-8.5-17.2
		C230.3,205,228.5,208.9,228.5,218.1z"/>
	<path class="st1" d="M237.4,184.3c4,3.7,11.7,10.9,19.4,23.4c3.2,7.2,12.2,20.1,8.8,38.9c-2.1,7.7-6.7,13-11.3,15.4
		c8.2-0.4,15.2-7.5,16.8-14.6c2.7-10.1,0.7-24.1-1.1-29.3c0,0,16.2,13,22.3,22.7c2.8,4.4,7.9,14.7,17.9,21.7
		c-17.9-21.7-11.5-43-16.1-55.2c-4-13.5-7.7-18.8-16.6-23c9.5,9.4,15.5,32.1,12.4,38.9c-5.9-3.7-11.2-8.1-15.7-11.7
		C268.8,207.1,251.6,189.6,237.4,184.3z"/>
	<path class="st1" d="M287.2,183.4c0,0,12.1,4.6,15.3,10.1c2.6,4.6,2.6,8.9,1.3,15.5c-1.2,6.4-2.2,32.8,7.9,44.4
		c4.9,5.6,9,8.3,17.8,8.3c9.3,0,13.2-3.8,19.4-11.4c1.5,2.3,4.4,5.3,12.2,4.8c-7-1.5-8.3-4.8-10.2-9.4c-2.7-6.5-4.4-19.4-1.5-28.2
		c-1,4.4-10.6,13.5-23.6,13.9c14.1,1.4,17.2-1.5,18.1-1.3c2.5,5.4,2.8,13.9-1.2,18.4c-4.4,4-8.7,8.9-20.8,5
		c-11.1-4.7-11.8-26.1-11.2-35.9c0.7-7.6-0.3-24,14.1-27.5c11.4-2.8,15.9,2.9,17.2,7.4c1.7,5.8-4.2,11.3-9.6,14.6
		c6.9-2.5,14.9-5.1,14.9-14.5c-1.1-11.2-10-16.3-25.5-13.3c-3.8,0.9-7.4,1.3-11.6,3.1C305.2,189.6,288.3,184,287.2,183.4z"/>
	<path d="M327,253.4"/>
</g>
</svg>
